<svg xmlns="http://www.w3.org/2000/svg" viewBox="0 0 24 24" width="24" height="24">
  <path fill="#4a4a4a" d="M11.5 2C6.81 2 3 5.81 3 10.5S6.81 19 11.5 19h.5v3c4.86-2.34 8-7 8-11.5C20 5.81 16.19 2 11.5 2zm1 14.5h-2v-2h2v2zm1.61-5.09c-.26.23-.47.4-.63.55-.29.29-.47.53-.56.73-.07.16-.11.36-.12.62H10.8c.02-.45.1-.82.24-1.12.14-.29.38-.59.73-.89.28-.26.49-.49.63-.68.14-.19.21-.41.21-.67 0-.3-.09-.54-.28-.71-.19-.18-.45-.26-.79-.26-.32 0-.58.08-.77.25-.19.17-.29.39-.3.66H8.5c.02-.62.23-1.12.63-1.48.4-.36.94-.54 1.62-.54.71 0 1.27.18 1.66.53.39.35.59.83.59 1.43 0 .44-.14.82-.39 1.16-.14.18-.4.43-.79.73l-.31.28z"/>
</svg>
