<svg xmlns="http://www.w3.org/2000/svg" viewBox="0 0 24 24" width="24" height="24">
  <path fill="#4a4a4a" d="M12 15.5A3.5 3.5 0 0 1 8.5 12 3.5 3.5 0 0 1 12 8.5a3.5 3.5 0 0 1 3.5 3.5 3.5 3.5 0 0 1-3.5 3.5m7.43-2.92c.04-.34.07-.68.07-1.08s-.03-.74-.07-1.08l2.32-1.82-2.22-3.84-2.73 1.1c-.57-.44-1.18-.81-1.86-1.08l-.42-2.9H9.48l-.42 2.9c-.68.27-1.29.64-1.86 1.08l-2.73-1.1-2.22 3.84L4.57 11c-.04.34-.07.69-.07 1.08s.03.74.07 1.08l-2.32 1.82 2.22 3.84 2.73-1.1c.57.44 1.18.81 1.86 1.08l.42 2.9h4.44l.42-2.9c.68-.27 1.29-.64 1.86-1.08l2.73 1.1 2.22-3.84-2.32-1.82z"/>
</svg>
